<svg width="24" height="21" viewBox="0 0 24 21" fill="none" xmlns="http://www.w3.org/2000/svg">
<path d="M20.65 1.5125C20.4 0.775 19.7 0.25 18.875 0.25H5.125C4.3 0.25 3.6125 0.775 3.35 1.5125L0.75 9V19C0.75 19.6875 1.3125 20.25 2 20.25H3.25C3.9375 20.25 4.5 19.6875 4.5 19V17.75H19.5V19C19.5 19.6875 20.0625 20.25 20.75 20.25H22C22.6875 20.25 23.25 19.6875 23.25 19V9L20.65 1.5125ZM5.125 14C4.0875 14 3.25 13.1625 3.25 12.125C3.25 11.0875 4.0875 10.25 5.125 10.25C6.1625 10.25 7 11.0875 7 12.125C7 13.1625 6.1625 14 5.125 14ZM18.875 14C17.8375 14 17 13.1625 17 12.125C17 11.0875 17.8375 10.25 18.875 10.25C19.9125 10.25 20.75 11.0875 20.75 12.125C20.75 13.1625 19.9125 14 18.875 14ZM3.25 7.75L5.125 2.125H18.875L20.75 7.75H3.25Z" fill="white"/>
</svg>
