<svg width="24" height="26" viewBox="0 0 24 26" fill="none" xmlns="http://www.w3.org/2000/svg">
<path d="M10.75 25.1562V13.7188L0.75 7.9375V17.9688C0.75 18.4271 0.859375 18.8438 1.07812 19.2188C1.29688 19.5938 1.60417 19.8958 2 20.125L10.75 25.1562ZM13.25 25.1562L22 20.125C22.3958 19.8958 22.7031 19.5938 22.9219 19.2188C23.1406 18.8438 23.25 18.4271 23.25 17.9688V7.9375L13.25 13.7188V25.1562ZM18.2188 7.96875L21.9062 5.8125L13.25 0.84375C12.8542 0.614583 12.4375 0.5 12 0.5C11.5625 0.5 11.1458 0.614583 10.75 0.84375L8.28125 2.25L18.2188 7.96875ZM12 11.5625L15.7188 9.4375L5.8125 3.6875L2.0625 5.84375L12 11.5625Z" fill="white"/>
</svg>
